<mxfile host="app.diagrams.net" modified="2024-03-02T06:37:18.593Z" agent="Mozilla/5.0 (X11; Linux x86_64) AppleWebKit/537.36 (KHTML, like Gecko) Chrome/121.0.0.0 Safari/537.36" version="24.0.0" etag="BQK4QzmjM0ulefPEV7Pb" type="github">
  <diagram name="Page-1" id="RsNrp7u-ZYI1w50Mxkpp">
    <mxGraphModel>
      <root>
        <mxCell id="0" />
        <mxCell id="1" parent="0" />
      </root>
    </mxGraphModel>
  </diagram>
</mxfile>
